<mxfile host="app.diagrams.net" modified="2022-01-16T09:11:37.976Z" agent="5.0 (Macintosh; Intel Mac OS X 10_15_7) AppleWebKit/605.1.15 (KHTML, like Gecko) Version/15.1 Safari/605.1.15" etag="7semgdhOKIPuI-qQNeni" version="16.2.6" type="github">
  <diagram id="WiBwuXCG9hDuX8GpaEaw" name="Page-1">
    <mxGraphModel dx="1035" dy="658" grid="1" gridSize="10" guides="1" tooltips="1" connect="1" arrows="1" fold="1" page="1" pageScale="1" pageWidth="1200" pageHeight="1600" math="0" shadow="0">
      <root>
        <mxCell id="0" />
        <mxCell id="1" parent="0" />
        <mxCell id="iNzH9nASQERAoEXpGLzl-1" value="" style="endArrow=classic;html=1;rounded=0;" edge="1" parent="1">
          <mxGeometry relative="1" as="geometry">
            <mxPoint x="30" y="40" as="sourcePoint" />
            <mxPoint x="30" y="1220" as="targetPoint" />
          </mxGeometry>
        </mxCell>
        <mxCell id="iNzH9nASQERAoEXpGLzl-2" value="&lt;p class=&quot;MsoNormal&quot; style=&quot;margin: 0pt 0pt 0.0001pt ; text-align: justify ; font-family: &amp;#34;times new roman&amp;#34; ; font-size: 10.5pt&quot;&gt;&lt;b&gt;&lt;span style=&quot;font-size: 14pt&quot;&gt;Daily&amp;nbsp;&lt;/span&gt;&lt;/b&gt;&lt;/p&gt;&lt;p class=&quot;MsoNormal&quot; style=&quot;margin: 0pt 0pt 0.0001pt ; text-align: justify ; font-family: &amp;#34;times new roman&amp;#34; ; font-size: 10.5pt&quot;&gt;&lt;b&gt;&lt;span style=&quot;font-size: 14pt&quot;&gt;Road&amp;nbsp;&lt;/span&gt;&lt;/b&gt;&lt;/p&gt;&lt;p class=&quot;MsoNormal&quot; style=&quot;margin: 0pt 0pt 0.0001pt ; text-align: justify ; font-family: &amp;#34;times new roman&amp;#34; ; font-size: 10.5pt&quot;&gt;&lt;b&gt;&lt;span style=&quot;font-size: 14pt&quot;&gt;Duty&lt;/span&gt;&lt;/b&gt;&lt;/p&gt;" style="edgeLabel;resizable=0;html=1;align=center;verticalAlign=middle;" connectable="0" vertex="1" parent="iNzH9nASQERAoEXpGLzl-1">
          <mxGeometry relative="1" as="geometry">
            <mxPoint y="109" as="offset" />
          </mxGeometry>
        </mxCell>
        <mxCell id="iNzH9nASQERAoEXpGLzl-5" value="" style="endArrow=classic;html=1;rounded=0;" edge="1" parent="1">
          <mxGeometry width="50" height="50" relative="1" as="geometry">
            <mxPoint x="30" y="90" as="sourcePoint" />
            <mxPoint x="60" y="90" as="targetPoint" />
          </mxGeometry>
        </mxCell>
        <mxCell id="iNzH9nASQERAoEXpGLzl-22" value="" style="edgeStyle=orthogonalEdgeStyle;rounded=0;orthogonalLoop=1;jettySize=auto;html=1;" edge="1" parent="1" source="iNzH9nASQERAoEXpGLzl-6" target="iNzH9nASQERAoEXpGLzl-21">
          <mxGeometry relative="1" as="geometry">
            <Array as="points">
              <mxPoint x="120" y="180" />
            </Array>
          </mxGeometry>
        </mxCell>
        <mxCell id="iNzH9nASQERAoEXpGLzl-6" value="&lt;b&gt;1&lt;/b&gt;&lt;br&gt;Support for Traffic in Morning Rush-hour" style="rounded=0;whiteSpace=wrap;html=1;" vertex="1" parent="1">
          <mxGeometry x="60" y="60" width="120" height="60" as="geometry" />
        </mxCell>
        <mxCell id="iNzH9nASQERAoEXpGLzl-10" value="" style="endArrow=classic;html=1;rounded=0;entryX=0;entryY=0.5;entryDx=0;entryDy=0;" edge="1" parent="1" target="iNzH9nASQERAoEXpGLzl-408">
          <mxGeometry width="50" height="50" relative="1" as="geometry">
            <mxPoint x="30" y="470" as="sourcePoint" />
            <mxPoint x="60" y="470" as="targetPoint" />
          </mxGeometry>
        </mxCell>
        <mxCell id="iNzH9nASQERAoEXpGLzl-11" value="&lt;b&gt;3&lt;/b&gt;&lt;br&gt;Shift &amp;amp; Lunch Hour" style="rounded=0;whiteSpace=wrap;html=1;" vertex="1" parent="1">
          <mxGeometry x="60" y="540" width="90" height="60" as="geometry" />
        </mxCell>
        <mxCell id="iNzH9nASQERAoEXpGLzl-12" value="" style="endArrow=classic;html=1;rounded=0;entryX=0;entryY=0.5;entryDx=0;entryDy=0;" edge="1" parent="1" target="iNzH9nASQERAoEXpGLzl-11">
          <mxGeometry width="50" height="50" relative="1" as="geometry">
            <mxPoint x="30" y="569.5" as="sourcePoint" />
            <mxPoint x="60" y="569.5" as="targetPoint" />
          </mxGeometry>
        </mxCell>
        <mxCell id="iNzH9nASQERAoEXpGLzl-13" value="&lt;b&gt;4&lt;/b&gt;&lt;br&gt;Support Traffic in Evening Rush-hour" style="rounded=0;whiteSpace=wrap;html=1;" vertex="1" parent="1">
          <mxGeometry x="60" y="830" width="120" height="60" as="geometry" />
        </mxCell>
        <mxCell id="iNzH9nASQERAoEXpGLzl-14" value="&lt;b&gt;5&lt;/b&gt;&lt;br&gt;Rejoin the team &amp;amp; Review Meeting" style="rounded=0;whiteSpace=wrap;html=1;" vertex="1" parent="1">
          <mxGeometry x="60" y="1120" width="120" height="60" as="geometry" />
        </mxCell>
        <mxCell id="iNzH9nASQERAoEXpGLzl-15" value="" style="endArrow=classic;html=1;rounded=0;entryX=0;entryY=0.5;entryDx=0;entryDy=0;" edge="1" parent="1">
          <mxGeometry width="50" height="50" relative="1" as="geometry">
            <mxPoint x="30" y="859.44" as="sourcePoint" />
            <mxPoint x="60" y="859.44" as="targetPoint" />
          </mxGeometry>
        </mxCell>
        <mxCell id="iNzH9nASQERAoEXpGLzl-16" value="" style="endArrow=classic;html=1;rounded=0;entryX=0;entryY=0.5;entryDx=0;entryDy=0;" edge="1" parent="1">
          <mxGeometry width="50" height="50" relative="1" as="geometry">
            <mxPoint x="30" y="1149.62" as="sourcePoint" />
            <mxPoint x="60" y="1149.62" as="targetPoint" />
          </mxGeometry>
        </mxCell>
        <mxCell id="iNzH9nASQERAoEXpGLzl-24" value="" style="edgeStyle=orthogonalEdgeStyle;rounded=0;orthogonalLoop=1;jettySize=auto;html=1;" edge="1" parent="1" source="iNzH9nASQERAoEXpGLzl-21" target="iNzH9nASQERAoEXpGLzl-23">
          <mxGeometry relative="1" as="geometry" />
        </mxCell>
        <mxCell id="iNzH9nASQERAoEXpGLzl-21" value="&lt;b&gt;1.1.1&lt;/b&gt;&lt;br&gt;Stand guard at one fixed peak crossing for 15 minutes" style="whiteSpace=wrap;html=1;rounded=0;" vertex="1" parent="1">
          <mxGeometry x="170" y="150" width="120" height="60" as="geometry" />
        </mxCell>
        <mxCell id="iNzH9nASQERAoEXpGLzl-29" value="" style="edgeStyle=orthogonalEdgeStyle;rounded=0;orthogonalLoop=1;jettySize=auto;html=1;dashed=1;dashPattern=1 4;" edge="1" parent="1" source="iNzH9nASQERAoEXpGLzl-23" target="iNzH9nASQERAoEXpGLzl-28">
          <mxGeometry relative="1" as="geometry" />
        </mxCell>
        <mxCell id="iNzH9nASQERAoEXpGLzl-23" value="&lt;b&gt;1.1.2&lt;/b&gt;&lt;br&gt;&amp;nbsp;Rapid processing of various emergencies during point duty" style="whiteSpace=wrap;html=1;rounded=0;" vertex="1" parent="1">
          <mxGeometry x="330" y="150" width="120" height="60" as="geometry" />
        </mxCell>
        <mxCell id="iNzH9nASQERAoEXpGLzl-28" value="&lt;b&gt;1.1.3&lt;/b&gt;&lt;br&gt;Divert construction vehicles occupying the main road" style="whiteSpace=wrap;html=1;rounded=0;" vertex="1" parent="1">
          <mxGeometry x="480" y="150" width="120" height="60" as="geometry" />
        </mxCell>
        <mxCell id="iNzH9nASQERAoEXpGLzl-398" value="" style="edgeStyle=orthogonalEdgeStyle;rounded=0;orthogonalLoop=1;jettySize=auto;html=1;" edge="1" parent="1" source="iNzH9nASQERAoEXpGLzl-391" target="iNzH9nASQERAoEXpGLzl-397">
          <mxGeometry relative="1" as="geometry" />
        </mxCell>
        <mxCell id="iNzH9nASQERAoEXpGLzl-391" value="&lt;b&gt;1.2.1&lt;br&gt;&lt;/b&gt;Follow the prescribed route to the next crossing" style="whiteSpace=wrap;html=1;rounded=0;" vertex="1" parent="1">
          <mxGeometry x="170" y="250" width="120" height="60" as="geometry" />
        </mxCell>
        <mxCell id="iNzH9nASQERAoEXpGLzl-395" value="" style="endArrow=classic;html=1;rounded=0;exitX=0.5;exitY=1;exitDx=0;exitDy=0;entryX=0;entryY=0.5;entryDx=0;entryDy=0;" edge="1" parent="1" source="iNzH9nASQERAoEXpGLzl-6" target="iNzH9nASQERAoEXpGLzl-391">
          <mxGeometry width="50" height="50" relative="1" as="geometry">
            <mxPoint x="200" y="180" as="sourcePoint" />
            <mxPoint x="160" y="360" as="targetPoint" />
            <Array as="points">
              <mxPoint x="120" y="280" />
            </Array>
          </mxGeometry>
        </mxCell>
        <mxCell id="iNzH9nASQERAoEXpGLzl-400" value="" style="edgeStyle=orthogonalEdgeStyle;rounded=0;orthogonalLoop=1;jettySize=auto;html=1;" edge="1" parent="1" source="iNzH9nASQERAoEXpGLzl-397" target="iNzH9nASQERAoEXpGLzl-399">
          <mxGeometry relative="1" as="geometry" />
        </mxCell>
        <mxCell id="iNzH9nASQERAoEXpGLzl-397" value="&lt;b&gt;1.2.2&lt;br&gt;&lt;/b&gt;Stand guard at another fixed peak crossing for 15 minutes" style="whiteSpace=wrap;html=1;rounded=0;" vertex="1" parent="1">
          <mxGeometry x="330" y="250" width="130" height="60" as="geometry" />
        </mxCell>
        <mxCell id="iNzH9nASQERAoEXpGLzl-402" value="" style="edgeStyle=orthogonalEdgeStyle;rounded=0;orthogonalLoop=1;jettySize=auto;html=1;dashed=1;dashPattern=1 4;" edge="1" parent="1" source="iNzH9nASQERAoEXpGLzl-399" target="iNzH9nASQERAoEXpGLzl-401">
          <mxGeometry relative="1" as="geometry" />
        </mxCell>
        <mxCell id="iNzH9nASQERAoEXpGLzl-399" value="&lt;b&gt;1.2.3&lt;br&gt;&lt;/b&gt;Rapid checking of traffic compliance" style="whiteSpace=wrap;html=1;rounded=0;" vertex="1" parent="1">
          <mxGeometry x="490" y="250" width="100" height="60" as="geometry" />
        </mxCell>
        <mxCell id="iNzH9nASQERAoEXpGLzl-401" value="&lt;b&gt;1.2.4&lt;br&gt;&lt;/b&gt;Randomly check seat belt ties in crowded convoys" style="whiteSpace=wrap;html=1;rounded=0;" vertex="1" parent="1">
          <mxGeometry x="620" y="250" width="130" height="60" as="geometry" />
        </mxCell>
        <mxCell id="iNzH9nASQERAoEXpGLzl-404" value="" style="edgeStyle=orthogonalEdgeStyle;rounded=0;orthogonalLoop=1;jettySize=auto;html=1;dashed=1;dashPattern=1 4;entryX=0;entryY=0.5;entryDx=0;entryDy=0;" edge="1" parent="1" target="iNzH9nASQERAoEXpGLzl-405">
          <mxGeometry relative="1" as="geometry">
            <mxPoint x="120" y="280" as="sourcePoint" />
            <mxPoint x="160" y="440" as="targetPoint" />
            <Array as="points">
              <mxPoint x="120" y="350" />
              <mxPoint x="120" y="440" />
            </Array>
          </mxGeometry>
        </mxCell>
        <mxCell id="iNzH9nASQERAoEXpGLzl-407" value="" style="edgeStyle=orthogonalEdgeStyle;rounded=0;orthogonalLoop=1;jettySize=auto;html=1;dashed=1;dashPattern=1 4;" edge="1" parent="1" source="iNzH9nASQERAoEXpGLzl-405" target="iNzH9nASQERAoEXpGLzl-406">
          <mxGeometry relative="1" as="geometry" />
        </mxCell>
        <mxCell id="iNzH9nASQERAoEXpGLzl-405" value="&lt;b&gt;1.3.1&lt;br&gt;&lt;/b&gt;Receive a signal from the command center in the&amp;nbsp;police mobile" style="whiteSpace=wrap;html=1;rounded=0;" vertex="1" parent="1">
          <mxGeometry x="170" y="350" width="120" height="60" as="geometry" />
        </mxCell>
        <mxCell id="iNzH9nASQERAoEXpGLzl-406" value="&lt;b&gt;1.3.2&lt;br&gt;&lt;/b&gt;Rapid processing of the incident within duty districts" style="whiteSpace=wrap;html=1;rounded=0;" vertex="1" parent="1">
          <mxGeometry x="330" y="350" width="120" height="60" as="geometry" />
        </mxCell>
        <mxCell id="iNzH9nASQERAoEXpGLzl-410" value="" style="edgeStyle=orthogonalEdgeStyle;rounded=0;orthogonalLoop=1;jettySize=auto;html=1;" edge="1" parent="1" source="iNzH9nASQERAoEXpGLzl-408" target="iNzH9nASQERAoEXpGLzl-409">
          <mxGeometry relative="1" as="geometry" />
        </mxCell>
        <mxCell id="iNzH9nASQERAoEXpGLzl-408" value="&lt;b&gt;2&lt;/b&gt;&lt;br&gt;&lt;span&gt;Patrol the Duty Districts&lt;/span&gt;" style="rounded=0;whiteSpace=wrap;html=1;" vertex="1" parent="1">
          <mxGeometry x="70" y="445" width="120" height="50" as="geometry" />
        </mxCell>
        <mxCell id="iNzH9nASQERAoEXpGLzl-409" value="&lt;b&gt;2.1&lt;/b&gt;&lt;br&gt;Check road conditions" style="rounded=0;whiteSpace=wrap;html=1;" vertex="1" parent="1">
          <mxGeometry x="220" y="445" width="80" height="50" as="geometry" />
        </mxCell>
        <mxCell id="iNzH9nASQERAoEXpGLzl-413" value="" style="endArrow=none;html=1;rounded=0;startArrow=none;" edge="1" parent="1" source="iNzH9nASQERAoEXpGLzl-411">
          <mxGeometry relative="1" as="geometry">
            <mxPoint x="340" y="469.5" as="sourcePoint" />
            <mxPoint x="420" y="470" as="targetPoint" />
          </mxGeometry>
        </mxCell>
        <mxCell id="iNzH9nASQERAoEXpGLzl-414" value="+" style="resizable=0;html=1;align=right;verticalAlign=bottom;" connectable="0" vertex="1" parent="iNzH9nASQERAoEXpGLzl-413">
          <mxGeometry x="1" relative="1" as="geometry">
            <mxPoint x="-100" as="offset" />
          </mxGeometry>
        </mxCell>
        <mxCell id="iNzH9nASQERAoEXpGLzl-411" value="&lt;b&gt;2.2&lt;/b&gt;&lt;br&gt;Found the illegal enclosures&amp;nbsp;" style="rounded=0;whiteSpace=wrap;html=1;" vertex="1" parent="1">
          <mxGeometry x="330" y="445" width="120" height="50" as="geometry" />
        </mxCell>
        <mxCell id="iNzH9nASQERAoEXpGLzl-415" value="" style="endArrow=none;html=1;rounded=0;" edge="1" parent="1">
          <mxGeometry relative="1" as="geometry">
            <mxPoint x="330" y="469.5" as="sourcePoint" />
            <mxPoint x="300" y="470" as="targetPoint" />
            <Array as="points">
              <mxPoint x="300" y="470" />
            </Array>
          </mxGeometry>
        </mxCell>
        <mxCell id="iNzH9nASQERAoEXpGLzl-423" value="" style="edgeStyle=orthogonalEdgeStyle;rounded=0;orthogonalLoop=1;jettySize=auto;html=1;dashed=1;dashPattern=1 4;" edge="1" parent="1" source="iNzH9nASQERAoEXpGLzl-419">
          <mxGeometry relative="1" as="geometry">
            <mxPoint x="710" y="469.9999999999998" as="targetPoint" />
          </mxGeometry>
        </mxCell>
        <mxCell id="iNzH9nASQERAoEXpGLzl-419" value="&lt;b&gt;2.4&lt;/b&gt;&lt;br&gt;Look for the person in charge to remove it" style="rounded=0;whiteSpace=wrap;html=1;" vertex="1" parent="1">
          <mxGeometry x="520" y="445" width="160" height="50" as="geometry" />
        </mxCell>
        <mxCell id="iNzH9nASQERAoEXpGLzl-421" value="dispatch" style="html=1;verticalAlign=bottom;startArrow=diamond;startFill=0;endArrow=open;startSize=6;endSize=8;rounded=0;dashed=1;dashPattern=1 4;exitX=1;exitY=0.5;exitDx=0;exitDy=0;entryX=0;entryY=0.5;entryDx=0;entryDy=0;" edge="1" parent="1" source="iNzH9nASQERAoEXpGLzl-411" target="iNzH9nASQERAoEXpGLzl-419">
          <mxGeometry width="80" relative="1" as="geometry">
            <mxPoint x="660" y="470.0000000000002" as="sourcePoint" />
            <mxPoint x="740" y="520" as="targetPoint" />
          </mxGeometry>
        </mxCell>
        <mxCell id="iNzH9nASQERAoEXpGLzl-422" value="&lt;b&gt;2.5&lt;/b&gt;&lt;br&gt;Supervise and record the process with private phone/police mobile/BWC" style="rounded=0;whiteSpace=wrap;html=1;" vertex="1" parent="1">
          <mxGeometry x="710" y="431.25" width="130" height="77.5" as="geometry" />
        </mxCell>
        <mxCell id="iNzH9nASQERAoEXpGLzl-425" value="&lt;b&gt;3.2&lt;/b&gt;&lt;br&gt;Charge all portable police devices and export the record&amp;nbsp;" style="rounded=0;whiteSpace=wrap;html=1;" vertex="1" parent="1">
          <mxGeometry x="170" y="710" width="120" height="60" as="geometry" />
        </mxCell>
        <mxCell id="iNzH9nASQERAoEXpGLzl-428" value="" style="endArrow=classic;html=1;rounded=0;exitX=0.5;exitY=1;exitDx=0;exitDy=0;entryX=0;entryY=0.5;entryDx=0;entryDy=0;" edge="1" parent="1" source="iNzH9nASQERAoEXpGLzl-11" target="iNzH9nASQERAoEXpGLzl-425">
          <mxGeometry width="50" height="50" relative="1" as="geometry">
            <mxPoint x="490" y="620" as="sourcePoint" />
            <mxPoint x="170" y="720" as="targetPoint" />
            <Array as="points">
              <mxPoint x="105" y="740" />
            </Array>
          </mxGeometry>
        </mxCell>
        <mxCell id="iNzH9nASQERAoEXpGLzl-430" value="&lt;b&gt;3.1&lt;/b&gt;&lt;br&gt;Scheduled shift&amp;nbsp;" style="rounded=0;whiteSpace=wrap;html=1;" vertex="1" parent="1">
          <mxGeometry x="170" y="620" width="120" height="60" as="geometry" />
        </mxCell>
        <mxCell id="iNzH9nASQERAoEXpGLzl-432" value="" style="endArrow=classic;html=1;rounded=0;" edge="1" parent="1">
          <mxGeometry width="50" height="50" relative="1" as="geometry">
            <mxPoint x="106" y="650" as="sourcePoint" />
            <mxPoint x="170" y="650" as="targetPoint" />
            <Array as="points">
              <mxPoint x="126" y="650" />
            </Array>
          </mxGeometry>
        </mxCell>
        <mxCell id="iNzH9nASQERAoEXpGLzl-444" value="" style="edgeStyle=orthogonalEdgeStyle;rounded=0;orthogonalLoop=1;jettySize=auto;html=1;" edge="1" parent="1" target="iNzH9nASQERAoEXpGLzl-446">
          <mxGeometry relative="1" as="geometry">
            <mxPoint x="120" y="890" as="sourcePoint" />
            <Array as="points">
              <mxPoint x="120" y="950" />
            </Array>
          </mxGeometry>
        </mxCell>
        <mxCell id="iNzH9nASQERAoEXpGLzl-445" value="" style="edgeStyle=orthogonalEdgeStyle;rounded=0;orthogonalLoop=1;jettySize=auto;html=1;" edge="1" parent="1" source="iNzH9nASQERAoEXpGLzl-446" target="iNzH9nASQERAoEXpGLzl-448">
          <mxGeometry relative="1" as="geometry" />
        </mxCell>
        <mxCell id="iNzH9nASQERAoEXpGLzl-446" value="&lt;b&gt;4.1.1&lt;/b&gt;&lt;br&gt;Stand guard at one fixed peak crossing for 15 minutes" style="whiteSpace=wrap;html=1;rounded=0;" vertex="1" parent="1">
          <mxGeometry x="170" y="920" width="120" height="60" as="geometry" />
        </mxCell>
        <mxCell id="iNzH9nASQERAoEXpGLzl-447" value="" style="edgeStyle=orthogonalEdgeStyle;rounded=0;orthogonalLoop=1;jettySize=auto;html=1;dashed=1;dashPattern=1 4;" edge="1" parent="1" source="iNzH9nASQERAoEXpGLzl-448" target="iNzH9nASQERAoEXpGLzl-449">
          <mxGeometry relative="1" as="geometry" />
        </mxCell>
        <mxCell id="iNzH9nASQERAoEXpGLzl-448" value="&lt;b&gt;4.1.2&lt;/b&gt;&lt;br&gt;&amp;nbsp;Rapid processing of various emergencies during point duty" style="whiteSpace=wrap;html=1;rounded=0;" vertex="1" parent="1">
          <mxGeometry x="330" y="920" width="120" height="60" as="geometry" />
        </mxCell>
        <mxCell id="iNzH9nASQERAoEXpGLzl-449" value="&lt;b&gt;4.1.3&lt;/b&gt;&lt;br&gt;Divert construction vehicles occupying the main road" style="whiteSpace=wrap;html=1;rounded=0;" vertex="1" parent="1">
          <mxGeometry x="480" y="920" width="120" height="60" as="geometry" />
        </mxCell>
        <mxCell id="iNzH9nASQERAoEXpGLzl-450" value="" style="edgeStyle=orthogonalEdgeStyle;rounded=0;orthogonalLoop=1;jettySize=auto;html=1;" edge="1" parent="1" source="iNzH9nASQERAoEXpGLzl-451" target="iNzH9nASQERAoEXpGLzl-454">
          <mxGeometry relative="1" as="geometry" />
        </mxCell>
        <mxCell id="iNzH9nASQERAoEXpGLzl-451" value="&lt;b&gt;4.2.1&lt;br&gt;&lt;/b&gt;Follow the prescribed route to the next crossing" style="whiteSpace=wrap;html=1;rounded=0;" vertex="1" parent="1">
          <mxGeometry x="170" y="1020" width="120" height="60" as="geometry" />
        </mxCell>
        <mxCell id="iNzH9nASQERAoEXpGLzl-452" value="" style="endArrow=classic;html=1;rounded=0;exitX=0.5;exitY=1;exitDx=0;exitDy=0;entryX=0;entryY=0.5;entryDx=0;entryDy=0;" edge="1" parent="1" target="iNzH9nASQERAoEXpGLzl-451">
          <mxGeometry width="50" height="50" relative="1" as="geometry">
            <mxPoint x="120" y="890" as="sourcePoint" />
            <mxPoint x="160" y="1130" as="targetPoint" />
            <Array as="points">
              <mxPoint x="120" y="1050" />
            </Array>
          </mxGeometry>
        </mxCell>
        <mxCell id="iNzH9nASQERAoEXpGLzl-453" value="" style="edgeStyle=orthogonalEdgeStyle;rounded=0;orthogonalLoop=1;jettySize=auto;html=1;" edge="1" parent="1" source="iNzH9nASQERAoEXpGLzl-454" target="iNzH9nASQERAoEXpGLzl-456">
          <mxGeometry relative="1" as="geometry" />
        </mxCell>
        <mxCell id="iNzH9nASQERAoEXpGLzl-454" value="&lt;b&gt;4.2.2&lt;br&gt;&lt;/b&gt;Stand guard at another fixed peak crossing for 15 minutes" style="whiteSpace=wrap;html=1;rounded=0;" vertex="1" parent="1">
          <mxGeometry x="330" y="1020" width="130" height="60" as="geometry" />
        </mxCell>
        <mxCell id="iNzH9nASQERAoEXpGLzl-455" value="" style="edgeStyle=orthogonalEdgeStyle;rounded=0;orthogonalLoop=1;jettySize=auto;html=1;dashed=1;dashPattern=1 4;" edge="1" parent="1" source="iNzH9nASQERAoEXpGLzl-456" target="iNzH9nASQERAoEXpGLzl-457">
          <mxGeometry relative="1" as="geometry" />
        </mxCell>
        <mxCell id="iNzH9nASQERAoEXpGLzl-456" value="&lt;b&gt;4.2.3&lt;br&gt;&lt;/b&gt;Rapid checking of traffic compliance" style="whiteSpace=wrap;html=1;rounded=0;" vertex="1" parent="1">
          <mxGeometry x="490" y="1020" width="100" height="60" as="geometry" />
        </mxCell>
        <mxCell id="iNzH9nASQERAoEXpGLzl-457" value="&lt;b&gt;4.2.4&lt;br&gt;&lt;/b&gt;Randomly check seat belt ties in crowded convoys" style="whiteSpace=wrap;html=1;rounded=0;" vertex="1" parent="1">
          <mxGeometry x="620" y="1020" width="130" height="60" as="geometry" />
        </mxCell>
        <mxCell id="iNzH9nASQERAoEXpGLzl-458" value="&lt;b&gt;5.1&lt;/b&gt;&lt;br&gt;Charge all portable police devices and export the record&amp;nbsp;" style="rounded=0;whiteSpace=wrap;html=1;" vertex="1" parent="1">
          <mxGeometry x="220" y="1120" width="120" height="60" as="geometry" />
        </mxCell>
        <mxCell id="iNzH9nASQERAoEXpGLzl-459" value="" style="endArrow=classic;html=1;rounded=0;entryX=0;entryY=0.5;entryDx=0;entryDy=0;" edge="1" parent="1" target="iNzH9nASQERAoEXpGLzl-458">
          <mxGeometry width="50" height="50" relative="1" as="geometry">
            <mxPoint x="180" y="1149.33" as="sourcePoint" />
            <mxPoint x="244" y="1149.33" as="targetPoint" />
            <Array as="points">
              <mxPoint x="200" y="1149.33" />
            </Array>
          </mxGeometry>
        </mxCell>
        <mxCell id="iNzH9nASQERAoEXpGLzl-460" value="&lt;b&gt;5.2&lt;/b&gt;&lt;br&gt;Review incidents report and summing-up" style="rounded=0;whiteSpace=wrap;html=1;" vertex="1" parent="1">
          <mxGeometry x="380" y="1120" width="110" height="60" as="geometry" />
        </mxCell>
        <mxCell id="iNzH9nASQERAoEXpGLzl-464" value="" style="endArrow=classic;html=1;rounded=0;entryX=0;entryY=0.5;entryDx=0;entryDy=0;exitX=1;exitY=0.5;exitDx=0;exitDy=0;" edge="1" parent="1" source="iNzH9nASQERAoEXpGLzl-458" target="iNzH9nASQERAoEXpGLzl-460">
          <mxGeometry width="50" height="50" relative="1" as="geometry">
            <mxPoint x="430" y="990" as="sourcePoint" />
            <mxPoint x="480" y="940" as="targetPoint" />
          </mxGeometry>
        </mxCell>
      </root>
    </mxGraphModel>
  </diagram>
</mxfile>
